<?xml version="1.0" encoding="UTF-8" standalone="no"?>
<svg
   width="34px"
   height="34px"
   viewBox="0 0 34 34"
   version="1.1"
   id="svg368"
   sodipodi:docname="coin.svg"
   inkscape:version="1.1.1 (3bf5ae0d25, 2021-09-20)"
   xmlns:inkscape="http://www.inkscape.org/namespaces/inkscape"
   xmlns:sodipodi="http://sodipodi.sourceforge.net/DTD/sodipodi-0.dtd"
   xmlns="http://www.w3.org/2000/svg"
   xmlns:svg="http://www.w3.org/2000/svg">
  <sodipodi:namedview
     id="namedview370"
     pagecolor="#ffffff"
     bordercolor="#666666"
     borderopacity="1.0"
     inkscape:pageshadow="2"
     inkscape:pageopacity="0.0"
     inkscape:pagecheckerboard="0"
     showgrid="false"
     inkscape:zoom="7.7205882"
     inkscape:cx="2.2019048"
     inkscape:cy="8.8723809"
     inkscape:window-width="1366"
     inkscape:window-height="705"
     inkscape:window-x="-8"
     inkscape:window-y="-8"
     inkscape:window-maximized="1"
     inkscape:current-layer="money" />
  <!-- Generator: Sketch 46.1 (44463) - http://www.bohemiancoding.com/sketch -->
  <title
     id="title330">money</title>
  <desc
     id="desc332">Created with Sketch.</desc>
  <defs
     id="defs352">
    <filter
       x="-0.24230769"
       y="-0.24230769"
       width="1.5855769"
       height="1.5855769"
       filterUnits="objectBoundingBox"
       id="filter-1">
      <feOffset
         dx="2"
         dy="2"
         in="SourceAlpha"
         result="shadowOffsetOuter1"
         id="feOffset334" />
      <feGaussianBlur
         stdDeviation="2"
         in="shadowOffsetOuter1"
         result="shadowBlurOuter1"
         id="feGaussianBlur336" />
      <feColorMatrix
         values="0 0 0 0 0   0 0 0 0 0   0 0 0 0 0  0 0 0 0.1 0"
         type="matrix"
         in="shadowBlurOuter1"
         result="shadowMatrixOuter1"
         id="feColorMatrix338" />
      <feMerge
         id="feMerge344">
        <feMergeNode
           in="shadowMatrixOuter1"
           id="feMergeNode340" />
        <feMergeNode
           in="SourceGraphic"
           id="feMergeNode342" />
      </feMerge>
    </filter>
    <radialGradient
       cx="13"
       cy="13"
       fx="13"
       fy="13"
       r="17.843406"
       id="radialGradient-2"
       gradientUnits="userSpaceOnUse">
      <stop
         stop-color="#FFCF00"
         offset="0%"
         id="stop347" />
      <stop
         stop-color="#F7AE15"
         offset="100%"
         id="stop349" />
    </radialGradient>
  </defs>
  <g
     id="Page-1"
     stroke="none"
     stroke-width="1"
     fill="none"
     fill-rule="evenodd">
    <g
       id="Catalog-pg1"
       transform="translate(-649.92952,-716.36381)">
      <g
         id="products"
         transform="translate(132,622)">
        <g
           id="line-1">
          <g
             id="product-card-hover"
             filter="url(#filter-1)"
             transform="translate(300)">
            <g
               id="money"
               transform="translate(109.92952,83.68)">
              <g
                 transform="translate(112,14.68381)"
                 id="g360">
                <g
                   id="g358">
                  <circle
                     id="Oval-Copy-3"
                     fill="url(#radialGradient-2)"
                     cx="13"
                     cy="13"
                     r="13"
                     style="fill:url(#radialGradient-2)" />
                  <path
                     d="m 13,3.0952381 c -5.4541964,0 -9.9047619,4.4513393 -9.9047619,9.9047619 0,5.454196 4.4513393,9.904762 9.9047619,9.904762 5.454196,0 9.904762,-4.451339 9.904762,-9.904762 C 22.904762,7.5458036 18.453423,3.0952381 13,3.0952381 Z M 13,21.744048 C 8.1785089,21.744048 4.2559524,17.821491 4.2559524,13 4.2559524,8.1785089 8.1785089,4.2559524 13,4.2559524 c 4.821491,0 8.744048,3.9225565 8.744048,8.7440476 0,4.821491 -3.922557,8.744048 -8.744048,8.744048 z"
                     id="Shape"
                     fill="#f8b013"
                     fill-rule="nonzero" />
                  <path
                     d="m 13,5.2962963 c -4.2316523,0 -7.7037037,3.4732698 -7.7037037,7.7037037 0,4.231652 3.4732698,7.703704 7.7037037,7.703704 4.231652,0 7.703704,-3.47327 7.703704,-7.703704 0,-4.2316523 -3.47327,-7.7037037 -7.703704,-7.7037037 z M 13,19.524565 C 9.4023311,19.524565 6.4754346,16.597669 6.4754346,13 6.4754346,9.4023311 9.4023311,6.4754346 13,6.4754346 c 3.597669,0 6.524565,2.9268965 6.524565,6.5245654 0,3.597669 -2.926896,6.524565 -6.524565,6.524565 z"
                     id="path356"
                     fill="#f8b013"
                     fill-rule="nonzero" />
                </g>
              </g>
            </g>
          </g>
        </g>
      </g>
    </g>
  </g>
</svg>
